<svg width="50" height="50" viewBox="0 0 50 50" fill="none" xmlns="http://www.w3.org/2000/svg">
<path d="M9.04231 14.1753L12.5437 15.926C13.1882 16.2075 13.8896 16.3343 14.5918 16.2963C15.294 16.2584 15.9775 16.0566 16.5878 15.7071L19.8967 13.5538C20.4661 13.1405 20.9295 12.5982 21.249 11.9714C21.5685 11.3446 21.7351 10.6509 21.7349 9.94734L21.5249 5.99951C21.4482 5.30159 21.2087 4.63133 20.8256 4.04292C20.4423 3.45451 19.9263 2.96432 19.3189 2.6119L15.8175 0.817435C15.1743 0.532596 14.473 0.40322 13.7704 0.439722C13.0679 0.476224 12.3837 0.677554 11.7734 1.02752L8.46466 3.18088C7.8963 3.59518 7.43359 4.13764 7.11426 4.7643C6.79485 5.39088 6.62766 6.08407 6.62634 6.78732L6.83642 10.7352C6.90444 11.4426 7.14 12.1236 7.52357 12.7218C7.90715 13.3202 8.42781 13.8184 9.04231 14.1753Z" fill="#0071BC"/>
<path d="M30.1645 19.2874L26.6631 17.4929C26.0202 17.2115 25.3202 17.0848 24.6194 17.1228C23.9186 17.1608 23.2366 17.3625 22.6278 17.7118L19.2839 19.8651C18.7177 20.2814 18.2564 20.8243 17.9373 21.4505C17.6181 22.0766 17.4497 22.7688 17.4457 23.4716L17.6559 27.4194C17.7324 28.1174 17.9719 28.7877 18.3551 29.3761C18.7383 29.9645 19.2543 30.4547 19.8616 30.807L23.363 32.5577C24.0049 32.8425 24.7047 32.9719 25.4059 32.9354C26.1071 32.8989 26.7897 32.6975 27.3984 32.3476L30.716 30.1943C31.2825 29.7762 31.7436 29.2317 32.0627 28.6041C32.3819 27.9766 32.5502 27.2831 32.5542 26.5791L32.3441 22.64C32.2639 21.951 32.0253 21.2899 31.6473 20.7083C31.2691 20.1267 30.7617 19.6404 30.1645 19.2874Z" fill="#0071BC"/>
<path d="M40.9664 35.9367L37.465 34.186C36.8217 33.901 36.1204 33.7717 35.4179 33.8082C34.7153 33.8447 34.0312 34.046 33.4209 34.396L30.1121 36.5494C29.5447 36.9646 29.0828 37.5073 28.7636 38.1337C28.4442 38.7601 28.2765 39.4528 28.2738 40.1558L28.484 44.1037C28.5678 44.7904 28.8088 45.4486 29.1884 46.0269C29.5678 46.6053 30.0757 47.0884 30.6724 47.4388L34.1738 49.1895C34.8182 49.4709 35.5195 49.5977 36.2217 49.5597C36.9239 49.5217 37.6075 49.32 38.2179 48.9706L41.5354 46.8173C42.1022 46.402 42.5631 45.8591 42.881 45.2325C43.1988 44.606 43.3646 43.9134 43.3649 43.2108L43.181 39.333C43.1055 38.6325 42.8655 37.9597 42.4807 37.3694C42.0959 36.7793 41.5769 36.2883 40.9664 35.9367Z" fill="#0071BC"/>
<path d="M15.1698 26.1326L15.0035 23.0601C15.0075 22.3573 15.1759 21.6651 15.4951 21.039C15.8143 20.4128 16.2754 19.8699 16.8417 19.4536L23.2931 15.2607C23.9018 14.9114 24.5839 14.7097 25.2848 14.6717C25.9856 14.6337 26.6855 14.7605 27.3284 15.0419L30.077 16.4424C30.7203 16.7273 31.4216 16.8567 32.1241 16.8202C32.8268 16.7837 33.5109 16.5823 34.1211 16.2324L37.43 14.0702C37.9978 13.6555 38.4601 13.113 38.7794 12.4864C39.0987 11.8599 39.2662 11.1671 39.2682 10.4638L39.0581 6.52472C38.9828 5.82523 38.7439 5.15322 38.3606 4.56324C37.9774 3.97316 37.4607 3.48165 36.8522 3.12836L33.3508 1.33389C32.7064 1.05247 32.0051 0.925629 31.3028 0.963619C30.6006 1.00161 29.917 1.20338 29.3067 1.55273L25.9279 3.67108C25.3611 4.08634 24.9001 4.62924 24.5823 5.25581C24.2644 5.88239 24.0987 6.57496 24.0984 7.27752L24.256 10.35C24.2557 11.0526 24.0898 11.7452 23.772 12.3718C23.4541 12.9984 22.9932 13.5413 22.4265 13.9564L15.9751 18.1494C15.3648 18.4993 14.6808 18.7008 13.9782 18.7373C13.2756 18.7738 12.5743 18.6443 11.931 18.3595L9.19118 16.9676C8.54788 16.6828 7.84664 16.5534 7.144 16.5899C6.44144 16.6264 5.75735 16.8278 5.14706 17.1777L1.83823 19.3311C1.26987 19.7454 0.807248 20.2879 0.487833 20.9145C0.168418 21.5412 0.00131303 22.2343 0 22.9375L0.210082 26.8854C0.284662 27.5851 0.52337 28.2574 0.906598 28.8475C1.28991 29.4377 1.80698 29.929 2.41597 30.2817L5.91737 32.0324C6.5618 32.3139 7.26313 32.4408 7.96534 32.4028C8.66754 32.3648 9.35119 32.163 9.96148 31.8136L13.2703 29.6602C13.8389 29.2599 14.3065 28.7328 14.6362 28.1205C14.9659 27.5083 15.1485 26.8277 15.1698 26.1326Z" fill="#0071BC"/>
<path d="M49.825 23.1741C49.747 22.4753 49.507 21.8044 49.124 21.2148C48.741 20.6251 48.2257 20.133 47.6191 19.7777L44.1177 18.027C43.4731 17.7462 42.7718 17.6197 42.0697 17.6577C41.3676 17.6957 40.6841 17.8971 40.0736 18.2458L36.7647 20.3992C36.1974 20.8145 35.7355 21.3571 35.4162 21.9835C35.097 22.6099 34.9292 23.3026 34.9265 24.0056L35.0928 27.0869C35.0901 27.7899 34.9224 28.4825 34.6031 29.1089C34.2839 29.7353 33.8219 30.278 33.2545 30.6933L26.8119 34.8775C26.2017 35.2268 25.5181 35.4286 24.8159 35.4666C24.1137 35.5046 23.4123 35.3777 22.7678 35.0963L20.0192 33.6958C19.3763 33.4143 18.6764 33.2875 17.9755 33.3255C17.2747 33.3636 16.5927 33.5653 15.9839 33.9146L12.64 36.0592C12.0738 36.4754 11.6126 37.0182 11.2934 37.6445C10.9742 38.2706 10.8059 38.9627 10.8019 39.6657L11.0119 43.6134C11.0886 44.3114 11.3281 44.9817 11.7112 45.5701C12.0944 46.1585 12.6104 46.6487 13.2178 47.0011L16.7192 48.7956C17.361 49.0803 18.0608 49.2097 18.762 49.1732C19.4632 49.1367 20.1458 48.9353 20.7546 48.5854L24.0721 46.432C24.6379 46.0154 25.0988 45.4724 25.4179 44.8463C25.737 44.2202 25.9056 43.5283 25.9104 42.8257L25.7441 39.7443C25.746 39.0412 25.9135 38.3483 26.2328 37.7218C26.5521 37.0953 27.0144 36.5527 27.5823 36.1379L34.0248 31.9451C34.6351 31.5951 35.3193 31.3937 36.0219 31.3572C36.7244 31.3207 37.4257 31.4501 38.0689 31.7349L40.8088 33.1268C41.4521 33.4116 42.1534 33.541 42.856 33.5045C43.5585 33.468 44.2426 33.2667 44.8529 32.9167L48.1706 30.7633C48.7368 30.3475 49.1974 29.8046 49.5151 29.1782C49.833 28.5517 49.999 27.8593 50 27.1569L49.825 23.1741Z" fill="#0071BC"/>
</svg>
